<svg t="1572579674998" class="icon" viewBox="0 0 1024 1024" version="1.1" xmlns="http://www.w3.org/2000/svg" p-id="2049" width="200" height="200"><path d="M760.486171 240.876011A258.950141 258.950141 0 0 0 502.029727 7.742615a258.962183 258.962183 0 0 0-258.468485 233.145438l-2.685231 26.310442h522.295391l-2.685231-26.322484z m-465.050611-21.457761C317.278645 124.327375 401.869426 55.510818 502.029727 55.510818a211.314393 211.314393 0 0 1 206.582126 163.907432H295.43556z" p-id="2050" fill="#707070"></path><path d="M932.49746 582.008655l-87.577046 0.120414V342.770273l45.998118-44.456821a35.847225 35.847225 0 0 0 0-50.778551 36.003763 36.003763 0 0 0-50.718344 0L759.920226 325.117592H231.074318l-73.187582-70.719097A35.883349 35.883349 0 0 0 107.168391 305.177046l65.071684 62.880151V583.044214l-88.829351 0.120414a35.871308 35.871308 0 1 0 1.312512 71.730574l87.516839-0.120414v59.917968c0 51.537159 13.907808 99.847225 38.074883 141.510442l-81.050612 78.317216a35.955597 35.955597 0 0 0 0 50.778551 35.955597 35.955597 0 0 0 50.778551 0l74.150894-71.658325c51.356538 51.910442 122.581373 84.133208 201.211665 84.133208h106.421825c72.091816 0 137.94619-27.129257 187.978175-71.670367l68.286736 65.986829a35.774976 35.774976 0 0 0 50.718344 0 35.883349 35.883349 0 0 0 0-50.718344l-71.766698-69.358419a281.467545 281.467545 0 0 0 47.876576-157.332832V653.847601l88.829351-0.120414a35.787018 35.787018 0 0 0 35.245155-36.49746 35.907432 35.907432 0 0 0-36.49746-35.221072zM792.468109 714.692756c0 127.169144-103.459643 230.640828-230.640828 230.640828h-22.962935V624.924177c0-14.859078-13.558608-26.912512-30.284101-26.912512s-30.284102 12.053434-30.284102 26.912512v320.409407H455.405456c-127.21731 0-230.713076-103.459643-230.713076-230.640828V377.569897h567.775729v337.122859z" p-id="2051" fill="#707070"></path></svg>